<svg viewBox="0 0 800 500" xmlns="http://www.w3.org/2000/svg">
  <!-- Definitions for reusable elements -->
  <defs>
    <!-- Normal distribution curve function -->
    <path id="normal-curve" d="M0,100 C20,100 30,10 50,10 C70,10 80,100 100,100" fill="none" stroke-width="3" />
    
    <!-- Arrows -->
    <marker id="arrowhead" markerWidth="10" markerHeight="7" refX="0" refY="3.5" orient="auto">
      <polygon points="0 0, 10 3.5, 0 7" />
    </marker>
  </defs>
  
  <!-- Background -->
  <rect width="800" height="500" fill="#f8f9fa" />
  
  <!-- Title -->
  <text x="400" y="40" font-family="Arial" font-size="24" text-anchor="middle" font-weight="bold">Bayesian Normal Mean Model</text>
  
  <!-- Three distribution panels -->
  <g transform="translate(50, 80)">
    <!-- Prior Distribution -->
    <rect x="0" y="0" width="200" height="320" fill="#e6f2ff" stroke="#0066cc" stroke-width="2" rx="10" />
    <text x="100" y="30" font-family="Arial" font-size="18" text-anchor="middle" font-weight="bold">Prior</text>
    <text x="100" y="55" font-family="Arial" font-size="14" text-anchor="middle">μ ~ N(μ₀, 1/τ₀)</text>
    
    <!-- Prior distribution curve -->
    <g transform="translate(30, 100)">
      <path d="M0,160 C20,160 40,60 70,20 C100,60 120,160 140,160" fill="#99ccff" stroke="#0066cc" stroke-width="3" fill-opacity="0.5" />
      
      <!-- Mean line -->
      <line x1="70" y1="20" x2="70" y2="180" stroke="#0066cc" stroke-width="2" stroke-dasharray="5,5" />
      <text x="70" y="200" font-family="Arial" font-size="14" text-anchor="middle">μ₀</text>
      
      <!-- Variance indication -->
      <line x1="40" y1="90" x2="100" y2="90" stroke="#0066cc" stroke-width="2" />
      <text x="70" y="82" font-family="Arial" font-size="12" text-anchor="middle">1/τ₀</text>
    </g>
    
    <text x="100" y="300" font-family="Arial" font-size="14" text-anchor="middle" font-style="italic">Initial belief</text>
  </g>

  <!-- Likelihood -->
  <g transform="translate(300, 80)">
    <rect x="0" y="0" width="200" height="320" fill="#fff0e6" stroke="#cc6600" stroke-width="2" rx="10" />
    <text x="100" y="30" font-family="Arial" font-size="18" text-anchor="middle" font-weight="bold">Likelihood</text>
    <text x="100" y="55" font-family="Arial" font-size="14" text-anchor="middle">Y | μ ~ N(μ, 1/τ)</text>
    
    <!-- Likelihood curve -->
    <g transform="translate(30, 100)">
      <path d="M0,160 C20,160 40,80 95,20 C130,60 120,160 140,160" fill="#ffcc99" stroke="#cc6600" stroke-width="3" fill-opacity="0.5" />
      
      <!-- Data point -->
      <line x1="95" y1="20" x2="95" y2="180" stroke="#cc6600" stroke-width="2" stroke-dasharray="5,5" />
      <text x="95" y="200" font-family="Arial" font-size="14" text-anchor="middle">Y</text>
      
      <!-- Variance indication -->
      <line x1="65" y1="90" x2="125" y2="90" stroke="#cc6600" stroke-width="2" />
      <text x="95" y="82" font-family="Arial" font-size="12" text-anchor="middle">1/τ</text>
    </g>
    
    <text x="100" y="300" font-family="Arial" font-size="14" text-anchor="middle" font-style="italic">Data evidence</text>
  </g>

  <!-- Posterior -->
  <g transform="translate(550, 80)">
    <rect x="0" y="0" width="200" height="320" fill="#e6ffe6" stroke="#009900" stroke-width="2" rx="10" />
    <text x="100" y="30" font-family="Arial" font-size="18" text-anchor="middle" font-weight="bold">Posterior</text>
    <text x="100" y="55" font-family="Arial" font-size="14" text-anchor="middle">μ | Y ~ N(μ₁, 1/τ₁)</text>
    
    <!-- Posterior curve -->
    <g transform="translate(30, 100)">
      <path d="M0,160 C20,160 30,100 85,10 C120,60 120,160 140,160" fill="#99e699" stroke="#009900" stroke-width="3" fill-opacity="0.5" />
      
      <!-- Posterior mean -->
      <line x1="85" y1="10" x2="85" y2="180" stroke="#009900" stroke-width="2" stroke-dasharray="5,5" />
      <text x="85" y="200" font-family="Arial" font-size="14" text-anchor="middle">μ₁</text>
      
      <!-- Variance indication -->
      <line x1="65" y1="70" x2="105" y2="70" stroke="#009900" stroke-width="2" />
      <text x="85" y="62" font-family="Arial" font-size="12" text-anchor="middle">1/τ₁</text>
    </g>
    
    <text x="100" y="300" font-family="Arial" font-size="14" text-anchor="middle" font-style="italic">Updated belief</text>
  </g>

  <!-- Connection arrows -->
  <g>
    <!-- Prior to Posterior -->
    <line x1="250" y1="200" x2="300" y2="200" stroke="#333" stroke-width="2" marker-end="url(#arrowhead)" />
    <line x1="500" y1="200" x2="550" y2="200" stroke="#333" stroke-width="2" marker-end="url(#arrowhead)" />
  </g>

  <!-- Formula section -->
  <g transform="translate(50, 420)">
    <rect x="0" y="0" width="700" height="60" fill="#f0f0f0" stroke="#333" stroke-width="1" rx="5" />
    
    <!-- Formulas -->
    <text x="350" y="25" font-family="Arial" font-size="16" text-anchor="middle">
      <tspan>τ₁ = τ + τ₀</tspan>
      <tspan x="350" dy="25">μ₁ = (τY + τ₀μ₀)/(τ + τ₀) = w·Y + (1-w)·μ₀ where w = τ/(τ+τ₀)</tspan>
    </text>
  </g>

  <!-- Key insights -->
  <g transform="translate(100, 130)">
    <path d="M150,30 L180,80" stroke="#333" stroke-width="1.5" stroke-dasharray="3,3" />
    <circle cx="150" cy="30" r="20" fill="#fff" stroke="#333" stroke-width="1.5" />
    <text x="150" y="35" font-family="Arial" font-size="12" text-anchor="middle">1</text>
    <text x="190" y="95" font-family="Arial" font-size="11" text-anchor="start">Higher prior precision (τ₀)</text>
    <text x="190" y="110" font-family="Arial" font-size="11" text-anchor="start">= more confidence in prior</text>
  </g>

  <g transform="translate(350, 130)">
    <path d="M150,30 L180,80" stroke="#333" stroke-width="1.5" stroke-dasharray="3,3" />
    <circle cx="150" cy="30" r="20" fill="#fff" stroke="#333" stroke-width="1.5" />
    <text x="150" y="35" font-family="Arial" font-size="12" text-anchor="middle">2</text>
    <text x="190" y="95" font-family="Arial" font-size="11" text-anchor="start">Higher data precision (τ)</text>
    <text x="190" y="110" font-family="Arial" font-size="11" text-anchor="start">= more weight on data</text>
  </g>

  <g transform="translate(600, 130)">
    <path d="M150,30 L180,80" stroke="#333" stroke-width="1.5" stroke-dasharray="3,3" />
    <circle cx="150" cy="30" r="20" fill="#fff" stroke="#333" stroke-width="1.5" />
    <text x="150" y="35" font-family="Arial" font-size="12" text-anchor="middle">3</text>
    <text x="190" y="95" font-family="Arial" font-size="11" text-anchor="start">Posterior precision (τ₁)</text>
    <text x="190" y="110" font-family="Arial" font-size="11" text-anchor="start">= τ + τ₀ (always improves)</text>
  </g>

  <!-- Mathematical operation illustration -->
  <g transform="translate(400, 260)">
    <text x="0" y="150" font-family="Arial" font-size="14" text-anchor="middle">Posterior ∝ Prior × Likelihood</text>
  </g>
</svg>