<svg viewBox="0 0 800 500" xmlns="http://www.w3.org/2000/svg">
  <!-- Background -->
  <rect width="800" height="500" fill="#f8f9fa" />
  
  <!-- Title -->
  <text x="400" y="40" font-family="Arial" font-size="24" text-anchor="middle" font-weight="bold">Genomic Relationship Matrix (GRM)</text>
  <text x="400" y="70" font-family="Arial" font-size="16" text-anchor="middle" font-style="italic">Quantifying Genetic Similarity Between Individuals</text>
  
  <!-- Background Boxes -->
  <rect x="50" y="90" width="700" height="140" fill="#f2f2f2" rx="10" ry="10" stroke="#d9d9d9" stroke-width="1" />
  <rect x="50" y="240" width="700" height="230" fill="#f2f2f2" rx="10" ry="10" stroke="#d9d9d9" stroke-width="1" />
  
  <!-- Section 1: Population of Individuals -->
  <text x="400" y="110" font-family="Arial" font-size="16" font-weight="bold" text-anchor="middle">Population with Genetic Variants</text>
  
  <!-- Individual cute figures -->
  <g transform="translate(150, 150)">
    <!-- Individual 1 - Red -->
    <circle cx="0" cy="0" r="10" fill="#ff9999" stroke="#ff9999" stroke-width="4" />
    <line x1="0" y1="10" x2="0" y2="25" stroke="#ff9999" stroke-width="4" />
    <line x1="0" y1="25" x2="-7" y2="38" stroke="#ff9999" stroke-width="4" />
    <line x1="0" y1="25" x2="7" y2="38" stroke="#ff9999" stroke-width="4" />
    <line x1="0" y1="18" x2="-10" y2="23" stroke="#ff9999" stroke-width="4" />
    <line x1="0" y1="18" x2="10" y2="23" stroke="#ff9999" stroke-width="4" />
    <text x="0" y="55" font-family="Arial" font-size="12" text-anchor="middle">Ind 1</text>
    <circle cx="-4" cy="-2" r="2.5" fill="#000" />
    <circle cx="4" cy="-2" r="2.5" fill="#000" />
    <path d="M-4,5 Q0,8 4,5" stroke="#000" stroke-width="1" fill="none" />
    
    <!-- Individual 2 - Blue -->
    <circle cx="125" cy="0" r="12" fill="#99ccff" stroke="#99ccff" stroke-width="4" />
    <line x1="125" y1="10" x2="125" y2="25" stroke="#99ccff" stroke-width="4" />
    <line x1="125" y1="25" x2="118" y2="38" stroke="#99ccff" stroke-width="4" />
    <line x1="125" y1="25" x2="132" y2="38" stroke="#99ccff" stroke-width="4" />
    <line x1="125" y1="18" x2="115" y2="23" stroke="#99ccff" stroke-width="4" />
    <line x1="125" y1="18" x2="135" y2="23" stroke="#99ccff" stroke-width="4" />
    <text x="125" y="55" font-family="Arial" font-size="12" text-anchor="middle">Ind 2</text>
    <circle cx="121" cy="-2" r="2.5" fill="#000" />
    <circle cx="129" cy="-2" r="2.5" fill="#000" />
    <path d="M121,5 Q125,8 129,5" stroke="#000" stroke-width="1" fill="none" />
    
    <!-- Individual 3 - Green -->
    <circle cx="250" cy="0" r="12" fill="#99ff99" stroke="#99ff99" stroke-width="4" />
    <line x1="250" y1="10" x2="250" y2="25" stroke="#99ff99" stroke-width="4" />
    <line x1="250" y1="25" x2="243" y2="38" stroke="#99ff99" stroke-width="4" />
    <line x1="250" y1="25" x2="257" y2="38" stroke="#99ff99" stroke-width="4" />
    <line x1="250" y1="18" x2="240" y2="23" stroke="#99ff99" stroke-width="4" />
    <line x1="250" y1="18" x2="260" y2="23" stroke="#99ff99" stroke-width="4" />
    <text x="250" y="55" font-family="Arial" font-size="12" text-anchor="middle">Ind 3</text>
    <circle cx="246" cy="-2" r="2.5" fill="#000" />
    <circle cx="254" cy="-2" r="2.5" fill="#000" />
    <path d="M246,5 Q250,8 254,5" stroke="#000" stroke-width="1" fill="none" />
    
    <!-- Individual 4 - Orange -->
    <circle cx="375" cy="0" r="12" fill="#ffcc99" stroke="#ffcc99" stroke-width="4" />
    <line x1="375" y1="10" x2="375" y2="25" stroke="#ffcc99" stroke-width="4" />
    <line x1="375" y1="25" x2="368" y2="38" stroke="#ffcc99" stroke-width="4" />
    <line x1="375" y1="25" x2="382" y2="38" stroke="#ffcc99" stroke-width="4" />
    <line x1="375" y1="18" x2="365" y2="23" stroke="#ffcc99" stroke-width="4" />
    <line x1="375" y1="18" x2="385" y2="23" stroke="#ffcc99" stroke-width="4" />
    <text x="375" y="55" font-family="Arial" font-size="12" text-anchor="middle">Ind 4</text>
    <circle cx="371" cy="-2" r="2.5" fill="#000" />
    <circle cx="379" cy="-2" r="2.5" fill="#000" />
    <path d="M371,5 Q375,8 379,5" stroke="#000" stroke-width="1" fill="none" />
    
    <!-- Individual 5 - Purple -->
    <circle cx="500" cy="0" r="12" fill="#cc99ff" stroke="#cc99ff" stroke-width="4" />
    <line x1="500" y1="10" x2="500" y2="25" stroke="#cc99ff" stroke-width="4" />
    <line x1="500" y1="25" x2="493" y2="38" stroke="#cc99ff" stroke-width="4" />
    <line x1="500" y1="25" x2="507" y2="38" stroke="#cc99ff" stroke-width="4" />
    <line x1="500" y1="18" x2="490" y2="23" stroke="#cc99ff" stroke-width="4" />
    <line x1="500" y1="18" x2="510" y2="23" stroke="#cc99ff" stroke-width="4" />
    <text x="500" y="55" font-family="Arial" font-size="12" text-anchor="middle">Ind 5</text>
    <circle cx="496" cy="-2" r="2.5" fill="#000" />
    <circle cx="504" cy="-2" r="2.5" fill="#000" />
    <path d="M496,5 Q500,8 504,5" stroke="#000" stroke-width="1" fill="none" />
  </g>
  
  <!-- Section 2: Genotype Matrix and GRM Calculation -->
  <text x="400" y="265" font-family="Arial" font-size="16" font-weight="bold" text-anchor="middle">From Genotypes to GRM</text>
  
  <!-- Formula -->
  <g transform="translate(400, 375)">
    <text x="-20" y="15" font-family="Arial" font-size="24" text-anchor="middle">G = </text>
    <text x="35" y="0" font-family="Arial" font-size="24" text-anchor="middle">XX<tspan baseline-shift="super" font-size="16">T</tspan></text>
    <text x="34" y="30" font-family="Arial" font-size="24" text-anchor="middle">M</text>
    <line x1="10" y1="7" x2="55" y2="7" stroke="black" stroke-width="2"/>

  </g>
  
  <!-- Genotype Matrix (X) -->
  <g transform="translate(100, 350)">
    <text x="110" y="-45" font-family="Arial" font-size="17" text-anchor="middle">Standardized Genotype Matrix (X)</text>
    <rect x="30" y="0" width="200" height="105" fill="#ffffff" stroke="#000000" stroke-width="1" />
    
    <!-- Column Headers (Variants) -->
    <text x="67" y="-10" font-family="Arial" font-size="10" text-anchor="middle">Variant 1</text>
    <text x="134" y="-10" font-family="Arial" font-size="10" text-anchor="middle">Variant 2</text>
    <text x="201" y="-10" font-family="Arial" font-size="10" text-anchor="middle">Variant 3</text>
    
    <!-- Row Headers (Individuals) -->
    <text x="-5" y="15" font-family="Arial" font-size="9" text-anchor="end">Ind 1</text>
    <text x="-5" y="36" font-family="Arial" font-size="9" text-anchor="end">Ind 2</text>
    <text x="-5" y="57" font-family="Arial" font-size="9" text-anchor="end">Ind 3</text>
    <text x="-5" y="78" font-family="Arial" font-size="9" text-anchor="end">Ind 4</text>
    <text x="-5" y="99" font-family="Arial" font-size="9" text-anchor="end">Ind 5</text>
    
    <!-- Values -->
    <text x="67" y="15" font-family="Arial" font-size="10" text-anchor="middle">-0.671</text>
    <text x="134" y="15" font-family="Arial" font-size="10" text-anchor="middle">0.239</text>
    <text x="201" y="15" font-family="Arial" font-size="10" text-anchor="middle">0.447</text>
    
    <text x="67" y="36" font-family="Arial" font-size="10" text-anchor="middle">1.565</text>
    <text x="134" y="36" font-family="Arial" font-size="10" text-anchor="middle">-0.956</text>
    <text x="201" y="36" font-family="Arial" font-size="10" text-anchor="middle">-0.671</text>
    
    <text x="67" y="57" font-family="Arial" font-size="10" text-anchor="middle">0.447</text>
    <text x="134" y="57" font-family="Arial" font-size="10" text-anchor="middle">0.239</text>
    <text x="201" y="57" font-family="Arial" font-size="10" text-anchor="middle">-0.671</text>
    
    <text x="67" y="78" font-family="Arial" font-size="10" text-anchor="middle">-0.671</text>
    <text x="134" y="78" font-family="Arial" font-size="10" text-anchor="middle">-0.956</text>
    <text x="201" y="78" font-family="Arial" font-size="10" text-anchor="middle">-0.671</text>
    
    <text x="67" y="99" font-family="Arial" font-size="10" text-anchor="middle">-0.671</text>
    <text x="134" y="99" font-family="Arial" font-size="10" text-anchor="middle">1.434</text>
    <text x="201" y="99" font-family="Arial" font-size="10" text-anchor="middle">1.565</text>
  </g>
  
  <!-- GRM -->
  <g transform="translate(500, 350)">
    <text x="100" y="-45" font-family="Arial" font-size="17" text-anchor="middle">Genomic Relationship Matrix (G)</text>
    <rect width="200" height="105" fill="#ffffff" stroke="#000000" stroke-width="1" />
    
    <!-- Column Headers (Individuals) -->
    <text x="20" y="-10" font-family="Arial" font-size="9" text-anchor="middle">Ind 1</text>
    <text x="60" y="-10" font-family="Arial" font-size="9" text-anchor="middle">Ind 2</text>
    <text x="100" y="-10" font-family="Arial" font-size="9" text-anchor="middle">Ind 3</text>
    <text x="140" y="-10" font-family="Arial" font-size="9" text-anchor="middle">Ind 4</text>
    <text x="180" y="-10" font-family="Arial" font-size="9" text-anchor="middle">Ind 5</text>
    
    <!-- Row Headers (Individuals) -->
    <text x="-5" y="15" font-family="Arial" font-size="9" text-anchor="end">Ind 1</text>
    <text x="-5" y="36" font-family="Arial" font-size="9" text-anchor="end">Ind 2</text>
    <text x="-5" y="57" font-family="Arial" font-size="9" text-anchor="end">Ind 3</text>
    <text x="-5" y="78" font-family="Arial" font-size="9" text-anchor="end">Ind 4</text>
    <text x="-5" y="99" font-family="Arial" font-size="9" text-anchor="end">Ind 5</text>

    <!-- GRM Cell Colors -->
    <!-- <rect x="0" y="0" width="40" height="21" fill="#cc9966" />
    <rect x="40" y="0" width="40" height="21" fill="#9bc0e8" />
    <rect x="80" y="0" width="40" height="21" fill="#c0d6e4" />
    <rect x="120" y="0" width="40" height="21" fill="#e6e6e6" />
    <rect x="160" y="0" width="40" height="21" fill="#eeb675" />
    
    <rect x="0" y="21" width="40" height="21" fill="#9bc0e8" />
    <rect x="40" y="21" width="40" height="21" fill="#cc0000" />
    <rect x="80" y="21" width="40" height="21" fill="#cc9966" />
    <rect x="120" y="21" width="40" height="21" fill="#e6e6e6" />
    <rect x="160" y="21" width="40" height="21" fill="#7578ac" />
    
    <rect x="0" y="42" width="40" height="21" fill="#c0d6e4" />
    <rect x="40" y="42" width="40" height="21" fill="#cc9966" />
    <rect x="80" y="42" width="40" height="21" fill="#cc9966" />
    <rect x="120" y="42" width="40" height="21" fill="#e6e6e6" />
    <rect x="160" y="42" width="40" height="21" fill="#c0d6e4" />

    <rect x="0" y="63" width="40" height="21" fill="#e6e6e6" />
    <rect x="40" y="63" width="40" height="21" fill="#e6e6e6" />
    <rect x="80" y="63" width="40" height="21" fill="#e6e6e6" />
    <rect x="120" y="63" width="40" height="21" fill="#eeb675" />
    <rect x="160" y="63" width="40" height="21" fill="#9bc0e8" />

    <rect x="0" y="84" width="40" height="21" fill="#eeb675" />
    <rect x="40" y="84" width="40" height="21" fill="#7578ac" />
    <rect x="80" y="84" width="40" height="21" fill="#c0d6e4" />
    <rect x="120" y="84" width="40" height="21" fill="#9bc0e8" />
    <rect x="160" y="84" width="40" height="21" fill="#cc0000" /> -->
    
    <!-- Values -->
    <text x="20" y="15" font-family="Arial" font-size="10" text-anchor="middle">0.236</text>
    <text x="60" y="15" font-family="Arial" font-size="10" text-anchor="middle">-0.526</text>
    <text x="100" y="15" font-family="Arial" font-size="10" text-anchor="middle">-0.181</text>
    <text x="140" y="15" font-family="Arial" font-size="10" text-anchor="middle">-0.026</text>
    <text x="180" y="15" font-family="Arial" font-size="10" text-anchor="middle">0.498</text>
    
    <text x="20" y="36" font-family="Arial" font-size="10" text-anchor="middle">-0.526</text>
    <text x="60" y="36" font-family="Arial" font-size="10" text-anchor="middle">1.271</text>
    <text x="100" y="36" font-family="Arial" font-size="10" text-anchor="middle">0.307</text>
    <text x="140" y="36" font-family="Arial" font-size="10" text-anchor="middle">0.105</text>
    <text x="180" y="36" font-family="Arial" font-size="10" text-anchor="middle">-1.157</text>
    
    <text x="20" y="57" font-family="Arial" font-size="10" text-anchor="middle">-0.181</text>
    <text x="60" y="57" font-family="Arial" font-size="10" text-anchor="middle">0.307</text>
    <text x="100" y="57" font-family="Arial" font-size="10" text-anchor="middle">0.236</text>
    <text x="140" y="57" font-family="Arial" font-size="10" text-anchor="middle">-0.026</text>
    <text x="180" y="57" font-family="Arial" font-size="10" text-anchor="middle">-0.336</text>

    <text x="20" y="78" font-family="Arial" font-size="10" text-anchor="middle">-0.026</text>
    <text x="60" y="78" font-family="Arial" font-size="10" text-anchor="middle">0.105</text>
    <text x="100" y="78" font-family="Arial" font-size="10" text-anchor="middle">-0.026</text>
    <text x="140" y="78" font-family="Arial" font-size="10" text-anchor="middle">0.605</text>
    <text x="180" y="78" font-family="Arial" font-size="10" text-anchor="middle">-0.657</text>

    <text x="20" y="99" font-family="Arial" font-size="10" text-anchor="middle">0.498</text>
    <text x="60" y="99" font-family="Arial" font-size="10" text-anchor="middle">-1.157</text>
    <text x="100" y="99" font-family="Arial" font-size="10" text-anchor="middle">-0.336</text>
    <text x="140" y="99" font-family="Arial" font-size="10" text-anchor="middle">-0.657</text>
    <text x="180" y="99" font-family="Arial" font-size="10" text-anchor="middle">1.652</text>
  </g>
</svg>